<?xml version="1.0" encoding="UTF-8"?>
<svg width="800" height="400" viewBox="0 0 800 400" fill="none" xmlns="http://www.w3.org/2000/svg">
  <rect width="800" height="400" fill="#FFFFFF"/>
  <!-- Grid Layout -->
  <g transform="translate(50, 50)">
    <!-- Row 1 -->
    <g transform="translate(0, 0)">
      <!-- Mask Icon -->
      <circle cx="100" cy="50" r="40" fill="#4A90E2" opacity="0.1"/>
      <path d="M80 50 Q100 70 120 50" stroke="#1A2B4E" stroke-width="2" fill="none"/>
      <rect x="70" y="40" width="60" height="30" rx="8" stroke="#1A2B4E" stroke-width="2" fill="none"/>
    </g>
    <g transform="translate(250, 0)">
      <!-- Hands Icon -->
      <circle cx="100" cy="50" r="40" fill="#4A90E2" opacity="0.1"/>
      <path d="M80 50 Q100 60 120 50" stroke="#1A2B4E" stroke-width="2" fill="none"/>
      <path d="M90 40 Q100 50 110 40" stroke="#1A2B4E" stroke-width="2" fill="none"/>
    </g>
    <g transform="translate(500, 0)">
      <!-- Distance Icon -->
      <circle cx="100" cy="50" r="40" fill="#4A90E2" opacity="0.1"/>
      <circle cx="80" cy="50" r="10" fill="#1A2B4E"/>
      <circle cx="120" cy="50" r="10" fill="#1A2B4E"/>
      <line x1="95" y1="50" x2="105" y2="50" stroke="#1A2B4E" stroke-width="2"/>
    </g>
    <!-- Row 2 -->
    <g transform="translate(0, 150)">
      <!-- Stay Home Icon -->
      <circle cx="100" cy="50" r="40" fill="#4A90E2" opacity="0.1"/>
      <path d="M80 60 L100 40 L120 60" stroke="#1A2B4E" stroke-width="2" fill="none"/>
      <rect x="90" y="50" width="20" height="20" stroke="#1A2B4E" stroke-width="2" fill="none"/>
    </g>
    <g transform="translate(250, 150)">
      <!-- Clean Hands Icon -->
      <circle cx="100" cy="50" r="40" fill="#4A90E2" opacity="0.1"/>
      <path d="M80 50 Q100 60 120 50" stroke="#1A2B4E" stroke-width="2" fill="none"/>
      <path d="M90 40 L110 40" stroke="#1A2B4E" stroke-width="2"/>
      <path d="M85 45 L115 45" stroke="#1A2B4E" stroke-width="2"/>
    </g>
    <g transform="translate(500, 150)">
      <!-- Avoid Contact Icon -->
      <circle cx="100" cy="50" r="40" fill="#4A90E2" opacity="0.1"/>
      <circle cx="85" cy="50" r="10" fill="#1A2B4E"/>
      <circle cx="115" cy="50" r="10" fill="#1A2B4E"/>
      <line x1="95" y1="50" x2="105" y2="50" stroke="#FF0000" stroke-width="2"/>
    </g>
  </g>
  <!-- Connecting Lines -->
  <g stroke="#4A90E2" stroke-width="1" stroke-dasharray="4 4">
    <line x1="200" y1="100" x2="300" y2="100"/>
    <line x1="450" y1="100" x2="550" y2="100"/>
    <line x1="200" y1="250" x2="300" y2="250"/>
    <line x1="450" y1="250" x2="550" y2="250"/>
  </g>
</svg>
